A Controversial Pier Paolo Passolini's Masterpiece !!


The final vision of a controversial filmmaker.




General
Complete name                    : Salo.Or.The.120.Days.Of.Sodom.1975.BRrip.XviD.AC3.1ch - CODY.avi
Format                           : AVI
Format/Info                      : Audio Video Interleave
File size                        : 962 MiB
Duration                         : 1h 56mn
Overall bit rate                 : 1 154 Kbps
Writing application              : VirtualDubMod 1.5.10.2 (build 2540/release)
Writing library                  : VirtualDubMod build 2540/release

Video
ID                               : 0
Format                           : MPEG-4 Visual
Format profile                   : Advanced Simple@L5
Format settings, BVOP            : Yes
Format settings, QPel            : No
Format settings, GMC             : No warppoints
Format settings, Matrix          : Default (H.263)
Codec ID                         : XVID
Codec ID/Hint                    : XviD
Duration                         : 1h 56mn
Bit rate                         : 920 Kbps
Width                            : 640 pixels
Height                           : 344 pixels
Display aspect ratio             : 1.860
Frame rate                       : 23.976 fps
Color space                      : YUV
Chroma subsampling               : 4:2:0
Bit depth                        : 8 bits
Scan type                        : Progressive
Compression mode                 : Lossy
Bits/(Pixel*Frame)               : 0.174
Stream size                      : 768 MiB (80%)
Writing library                  : XviD 1.2.0.dev47 (UTC 2006-11-01)

Audio
ID                               : 1
Format                           : AC-3
Format/Info                      : Audio Coding 3
Mode extension                   : CM (complete main)
Codec ID                         : 2000
Duration                         : 1h 56mn
Bit rate mode                    : Constant
Bit rate                         : 224 Kbps
Channel(s)                       : 2 channels
Channel positions                : Front: L R
Sampling rate                    : 48.0 KHz
Bit depth                        : 16 bits
Compression mode                 : Lossy
Stream size                      : 187 MiB (19%)
Alignment                        : Split accross interleaves
Interleave, duration             : 42 ms (1.00 video frame)
Interleave, preload duration     : 500 ms




IMDB:  http://www.imdb.com/title/tt0073650/


Subtitles included:   English, Romanian